<?xml version="1.0" standalone="no"?>
<!DOCTYPE svg PUBLIC "-//W3C//DTD SVG 20010904//EN"
 "http://www.w3.org/TR/2001/REC-SVG-20010904/DTD/svg10.dtd">
<svg version="1.0" xmlns="http://www.w3.org/2000/svg"
 width="1181.000000pt" height="1280.000000pt" viewBox="0 0 1181.000000 1280.000000"
 preserveAspectRatio="xMidYMid meet">
<metadata>
Created by potrace 1.15, written by Peter Selinger 2001-2017
</metadata>
<g transform="translate(0.000000,1280.000000) scale(0.100000,-0.100000)"
fill="#000000" stroke="none">
<path d="M7935 12774 c-146 -26 -209 -49 -281 -104 -26 -20 -70 -39 -119 -51
-73 -19 -82 -24 -147 -89 -37 -38 -68 -74 -68 -81 0 -12 -51 -9 -155 11 -118
21 -303 5 -442 -39 -80 -26 -101 -37 -140 -74 -81 -77 0 -179 232 -295 94 -46
198 -108 202 -119 8 -20 -13 -40 -71 -68 l-53 -26 -79 38 c-72 35 -86 38 -157
37 -70 -2 -84 -5 -130 -34 -119 -75 -115 -74 -193 -72 -41 2 -120 12 -176 24
-124 25 -219 27 -270 4 -25 -10 -65 -16 -118 -16 -45 0 -101 -5 -125 -11 -35
-9 -54 -8 -100 6 -47 13 -83 15 -214 9 -115 -5 -167 -3 -195 6 -56 18 -124 15
-179 -9 -27 -12 -67 -24 -90 -27 -23 -3 -81 -19 -129 -35 -109 -37 -143 -36
-230 2 -72 31 -110 34 -206 14 -21 -5 -38 -3 -48 6 -11 9 -75 15 -214 20 -109
4 -204 10 -211 14 -6 5 -97 9 -201 11 l-189 2 -41 28 c-33 23 -52 29 -92 28
-28 0 -112 -1 -186 -3 -74 -1 -169 3 -210 9 -96 14 -434 4 -550 -17 -47 -8
-121 -28 -166 -43 -92 -32 -542 -224 -869 -372 -121 -55 -258 -111 -305 -125
-47 -13 -150 -55 -230 -93 -118 -57 -175 -77 -307 -109 -90 -22 -181 -50 -203
-61 -65 -33 -109 -86 -166 -203 -43 -88 -54 -120 -54 -160 0 -41 -5 -55 -30
-84 -38 -43 -38 -65 2 -138 28 -53 32 -67 29 -132 -2 -78 5 -98 50 -151 23
-25 29 -43 29 -77 0 -63 21 -75 133 -75 87 0 88 0 124 35 20 19 46 35 58 35
12 0 53 20 91 45 48 31 80 45 104 45 55 0 91 30 133 107 26 48 54 82 87 107
60 45 140 131 140 149 0 7 11 28 25 47 14 19 25 44 25 56 0 18 14 28 75 53 41
17 108 45 149 61 40 17 100 47 132 66 136 82 236 115 614 199 275 61 351 80
390 100 19 10 38 11 76 3 47 -9 55 -8 96 16 28 16 60 26 85 26 22 0 58 6 79
14 42 14 110 9 254 -18 41 -8 90 -17 109 -20 55 -10 61 -20 61 -103 0 -41 5
-83 10 -93 13 -25 35 -140 50 -261 9 -79 8 -119 -4 -221 -19 -149 -13 -216 18
-223 11 -2 73 -7 136 -10 191 -11 199 -31 79 -192 -45 -59 -89 -124 -100 -143
-33 -61 -183 -243 -229 -278 -167 -125 -262 -278 -355 -574 -11 -33 -39 -72
-101 -140 -47 -51 -103 -119 -125 -152 -34 -51 -39 -65 -39 -115 1 -33 7 -64
15 -75 10 -13 15 -43 15 -88 0 -62 -3 -72 -41 -130 -48 -74 -117 -216 -125
-255 -3 -18 10 -72 36 -148 23 -66 44 -142 47 -170 6 -55 58 -257 73 -286 6
-10 28 -39 50 -64 23 -26 57 -81 76 -122 39 -82 151 -210 234 -266 25 -17 88
-71 140 -120 52 -49 121 -105 153 -125 32 -20 126 -93 210 -161 155 -126 197
-156 324 -230 43 -24 115 -83 180 -145 115 -109 171 -146 226 -146 44 0 61
-20 93 -111 29 -84 31 -97 14 -159 -6 -25 -13 -104 -15 -175 -2 -87 -9 -144
-19 -170 -14 -37 -32 -136 -43 -249 -3 -27 -15 -63 -28 -82 -56 -82 -76 -202
-96 -569 -7 -144 -18 -245 -35 -325 -13 -63 -24 -144 -24 -180 0 -114 22 -363
36 -412 19 -63 18 -96 -4 -138 -11 -19 -34 -80 -51 -134 -37 -112 -37 -141 5
-263 14 -40 23 -77 19 -82 -5 -9 3 -51 20 -109 6 -18 4 -22 -16 -22 -63 0
-109 -61 -109 -146 0 -26 -5 -32 -32 -40 -18 -6 -34 -17 -36 -26 -2 -8 11 -44
27 -78 24 -50 33 -85 41 -165 5 -55 12 -109 16 -118 13 -34 -16 -16 -33 20
-20 42 -41 50 -84 32 -37 -15 -57 -52 -65 -122 l-6 -55 -27 16 c-33 19 -96 9
-110 -17 -8 -14 -2 -29 27 -69 41 -56 58 -68 78 -52 15 13 21 4 52 -85 11 -33
23 -94 25 -136 l4 -75 -67 -11 c-154 -24 -299 -141 -346 -279 -15 -45 -16 -60
-6 -106 18 -77 71 -177 131 -245 43 -49 62 -62 119 -82 37 -13 128 -47 202
-76 240 -93 425 -124 810 -134 l255 -6 -3 -35 c-1 -19 -15 -60 -30 -90 -21
-43 -31 -54 -47 -52 -103 16 -125 14 -182 -13 -31 -16 -81 -52 -110 -80 -53
-51 -53 -52 -53 -112 0 -186 136 -298 304 -249 106 31 176 131 176 251 l0 41
119 71 c105 64 123 71 155 66 34 -5 40 -2 87 47 37 38 54 50 67 45 9 -4 43
-10 74 -13 50 -4 63 -1 111 27 37 21 68 31 96 31 103 0 1024 -110 1496 -179
110 -16 239 -35 287 -41 48 -7 94 -17 102 -23 20 -15 61 -159 81 -284 8 -51
21 -107 29 -125 8 -18 18 -50 21 -70 8 -52 54 -85 146 -104 100 -21 170 -14
314 35 119 39 356 154 467 224 66 43 127 67 258 102 118 31 131 31 161 -1 13
-14 37 -33 53 -41 42 -22 146 -12 217 20 77 34 101 68 137 191 6 21 17 32 38
38 32 10 34 11 214 97 234 111 430 243 516 346 22 26 60 71 86 100 83 95 98
153 56 215 -33 49 -99 79 -197 90 -79 9 -247 0 -270 -14 -14 -9 -41 4 -41 20
0 19 -134 170 -183 205 -83 60 -179 63 -241 8 -46 -40 -144 -87 -223 -106 -56
-14 -76 -15 -132 -4 -99 18 -227 32 -311 34 -67 2 -75 4 -75 22 0 10 -10 25
-23 31 -32 16 -68 67 -107 151 -37 79 -98 173 -140 215 -23 23 -27 34 -22 63
5 31 2 38 -23 56 -40 30 -44 56 -15 91 14 16 29 47 36 70 9 35 8 49 -10 95
-12 30 -21 67 -21 81 0 15 -11 68 -25 117 -14 50 -25 106 -25 125 0 20 -13 58
-31 90 -18 30 -39 69 -48 85 -13 25 -17 78 -22 300 -3 149 -11 302 -17 340 -7
39 -16 201 -22 360 -5 160 -15 310 -21 335 -7 25 -13 88 -14 140 -2 98 -29
340 -47 420 -5 25 -13 88 -18 140 -9 110 -17 146 -40 180 -26 39 -28 52 -19
110 11 73 -1 112 -52 167 -39 43 -41 47 -35 92 5 38 1 55 -19 93 -14 26 -25
56 -25 67 0 10 -10 45 -22 78 -19 51 -42 79 -190 228 -242 243 -244 246 -262
290 -9 22 -27 56 -40 75 -12 19 -54 84 -92 143 -38 59 -95 145 -128 190 -32
45 -72 110 -87 144 -21 45 -53 87 -117 151 -48 49 -136 142 -197 207 -60 65
-173 176 -250 247 -244 225 -283 266 -325 344 -57 102 -90 128 -330 257 -47
25 -100 58 -118 74 l-33 28 51 39 c117 89 147 162 94 226 -15 17 -25 32 -23
34 13 10 289 193 360 239 47 31 103 75 125 99 22 24 64 62 94 86 29 24 60 52
68 63 8 11 69 46 136 78 66 32 156 80 198 108 85 56 146 71 241 58 72 -10 95
-24 226 -137 64 -56 161 -131 216 -168 125 -84 339 -303 442 -453 30 -44 36
-47 75 -47 118 0 628 148 862 249 27 12 50 20 52 19 1 -2 43 -70 94 -152 118
-192 178 -272 298 -399 55 -57 148 -164 207 -238 60 -74 215 -242 345 -374
230 -233 372 -395 495 -566 83 -115 111 -163 201 -344 43 -87 101 -188 129
-224 29 -36 78 -113 110 -171 69 -124 120 -201 174 -264 22 -26 60 -77 84
-114 60 -92 103 -139 149 -163 33 -17 50 -19 127 -13 102 8 141 -2 206 -51 91
-70 157 -85 223 -51 64 33 74 100 28 194 l-21 43 22 17 c12 9 37 37 57 60 31
38 36 51 36 94 0 47 -3 54 -42 90 l-43 40 -2 86 c-7 257 -7 259 -29 289 -35
48 -123 92 -289 144 -88 28 -191 67 -230 87 -87 46 -160 118 -204 202 -19 36
-44 79 -56 95 -76 105 -350 542 -473 755 -87 150 -314 489 -400 597 -43 54
-128 152 -188 218 -60 66 -133 150 -162 187 -29 37 -113 126 -187 198 -73 73
-142 149 -151 169 -27 56 -93 150 -152 216 -88 98 -164 220 -212 345 -18 46
-63 109 -126 179 -28 31 -55 67 -59 81 -12 40 -45 92 -87 136 -32 33 -45 59
-65 129 -32 116 -50 149 -117 215 -52 51 -56 57 -56 102 0 54 -26 128 -45 128
-15 0 -165 155 -165 170 0 6 7 24 15 40 17 33 63 60 140 83 98 30 143 54 161
89 9 18 51 69 94 113 42 44 96 110 119 147 24 38 59 77 78 89 42 26 64 72 88
184 10 44 33 141 51 215 54 214 46 327 -36 497 -49 103 -100 180 -209 312
-108 131 -192 201 -306 256 -163 79 -290 91 -530 49z m-2446 -7138 c36 -24
111 -67 166 -95 110 -55 115 -60 265 -254 120 -155 315 -356 400 -412 38 -25
102 -61 144 -80 63 -28 76 -39 81 -62 9 -41 34 -84 69 -119 17 -17 49 -50 70
-73 39 -42 39 -43 23 -71 -22 -37 -21 -63 3 -85 16 -15 19 -26 14 -53 -5 -27
0 -49 27 -103 30 -63 32 -72 21 -102 -18 -49 -15 -67 20 -138 29 -58 32 -70
29 -147 -2 -68 1 -89 18 -117 12 -21 24 -68 30 -122 6 -48 16 -126 21 -173 6
-47 16 -103 22 -125 6 -22 14 -67 18 -100 4 -33 14 -87 22 -120 9 -33 21 -89
27 -123 7 -35 37 -139 67 -230 75 -226 87 -288 89 -467 1 -176 25 -294 83
-415 27 -55 36 -89 37 -127 l0 -51 -125 -7 c-147 -9 -567 8 -800 32 -131 13
-243 16 -550 13 -788 -6 -707 -8 -731 17 -13 12 -25 42 -30 71 -10 66 -50 149
-98 204 -39 43 -39 46 -30 89 8 32 7 59 -2 96 -11 48 -10 56 14 116 21 53 24
71 17 98 -13 44 -13 49 3 49 18 0 47 53 47 85 0 32 -21 73 -52 102 -28 27
-105 62 -135 63 -26 0 -30 5 -34 44 -4 27 -1 30 63 50 76 25 108 50 146 116
28 47 29 53 21 270 -1 31 11 80 41 160 l42 115 -3 175 c-2 96 -4 265 -4 375 0
181 3 211 27 316 15 64 34 183 43 265 20 202 32 290 53 416 17 95 24 115 59
165 49 70 66 108 87 199 8 38 29 107 45 154 17 47 31 99 31 116 0 28 6 44 18
44 2 0 34 -20 71 -44z"/>
</g>
</svg>
